<?xml version="1.0" encoding="utf-8"?>
<!-- Generator: Adobe Illustrator 17.1.0, SVG Export Plug-In . SVG Version: 6.00 Build 0)  -->
<!DOCTYPE svg PUBLIC "-//W3C//DTD SVG 1.1//EN" "http://www.w3.org/Graphics/SVG/1.1/DTD/svg11.dtd">
<svg version="1.1" xmlns="http://www.w3.org/2000/svg" xmlns:xlink="http://www.w3.org/1999/xlink" x="0px" y="0px"
	 viewBox="0 0 50 50" enable-background="new 0 0 50 50" xml:space="preserve">
<g id="Layer_1">
	<path d="M41,12H16.3L16,8.9C15.9,8.4,15.5,8,15,8H8v2h6.1L16,27.9l-1.9,4.8L16,34h20l1-2H16.5l1.3-3.1L41.2,24
		c0.5-0.1,0.8-0.5,0.8-1V13C42,12.4,41.6,12,41,12z M40,22.2l-22.1,4.6L16.5,14H40V22.2z"/>
	<path d="M38,40c-2.2,0-4-1.8-4-4s1.8-4,4-4s4,1.8,4,4S40.2,40,38,40z M38,33.8c-1.2,0-2.2,1-2.2,2.2s1,2.2,2.2,2.2s2.2-1,2.2-2.2
		S39.2,33.8,38,33.8z"/>
	<path d="M14,40c-2.2,0-4-1.8-4-4s1.8-4,4-4s4,1.8,4,4S16.2,40,14,40z M14,33.8c-1.2,0-2.2,1-2.2,2.2s1,2.2,2.2,2.2s2.2-1,2.2-2.2
		S15.2,33.8,14,33.8z"/>
</g>
<g id="Guides">
</g>
</svg>
