<?xml version="1.0" encoding="utf-8"?>
<!-- Generator: Adobe Illustrator 17.1.0, SVG Export Plug-In . SVG Version: 6.00 Build 0)  -->
<!DOCTYPE svg PUBLIC "-//W3C//DTD SVG 1.1//EN" "http://www.w3.org/Graphics/SVG/1.1/DTD/svg11.dtd">
<svg version="1.1" xmlns="http://www.w3.org/2000/svg" xmlns:xlink="http://www.w3.org/1999/xlink" x="0px" y="0px"
	 viewBox="0 0 50 50" enable-background="new 0 0 50 50" xml:space="preserve">
<g id="Layer_1">
	<path d="M42.6,19.3c-0.1-0.2-0.3-0.3-0.5-0.3h-13l-4-12.4c-0.1-0.4-0.8-0.4-1,0l-4,12.4h-13c-0.2,0-0.4,0.1-0.5,0.3
		c-0.1,0.2,0,0.4,0.2,0.5l10.5,7.7l-4,12.4c-0.1,0.2,0,0.4,0.2,0.6c0.2,0.1,0.4,0.1,0.6,0l10.5-7.7l10.5,7.7
		c0.1,0.1,0.2,0.1,0.3,0.1s0.2,0,0.3-0.1c0.2-0.1,0.2-0.4,0.2-0.6l-4-12.4l10.5-7.6C42.6,19.7,42.7,19.5,42.6,19.3z"/>
</g>
<g id="Guides">
</g>
</svg>
