<?xml version="1.0" encoding="utf-8"?>
<!-- Generator: Adobe Illustrator 17.1.0, SVG Export Plug-In . SVG Version: 6.00 Build 0)  -->
<!DOCTYPE svg PUBLIC "-//W3C//DTD SVG 1.1//EN" "http://www.w3.org/Graphics/SVG/1.1/DTD/svg11.dtd">
<svg version="1.1" xmlns="http://www.w3.org/2000/svg" xmlns:xlink="http://www.w3.org/1999/xlink" x="0px" y="0px"
	 viewBox="0 0 50 50" enable-background="new 0 0 50 50" xml:space="preserve">
<g id="Layer_1">
	<path d="M35.9,40.6c-0.2,0-0.4-0.1-0.6-0.2L25.1,33l-10.3,7.4c-0.4,0.3-0.8,0.3-1.2,0s-0.5-0.7-0.4-1.1l3.9-12L6.9,19.8
		c-0.4-0.3-0.5-0.7-0.4-1.1s0.5-0.6,1-0.6h12.7l3.9-12.2c0.1-0.4,0.5-0.7,1-0.7l0,0c0.4,0,0.8,0.3,1,0.7l3.9,12.2h12.7
		c0.4,0,0.8,0.2,1,0.6s0,0.9-0.4,1.1l-10.3,7.4l3.9,12c0.1,0.4,0,0.9-0.4,1.1C36.3,40.5,36.1,40.6,35.9,40.6z M10.6,20l8.3,6.1
		c0.4,0.3,0.5,0.7,0.4,1.1L16.1,37l8.3-6.1c0.4-0.3,0.8-0.3,1.2,0L34,37l-3.2-9.8c-0.1-0.4,0-0.9,0.4-1.1l8.3-6.1H29.2
		c-0.4,0-0.8-0.3-1-0.7l-3.2-9.8l-3.2,9.8c-0.1,0.4-0.5,0.7-1,0.7H10.6z"/>
</g>
<g id="Guides">
</g>
</svg>
