<?xml version="1.0" encoding="utf-8"?>
<!-- Generator: Adobe Illustrator 17.1.0, SVG Export Plug-In . SVG Version: 6.00 Build 0)  -->
<!DOCTYPE svg PUBLIC "-//W3C//DTD SVG 1.1//EN" "http://www.w3.org/Graphics/SVG/1.1/DTD/svg11.dtd">
<svg version="1.1" xmlns="http://www.w3.org/2000/svg" xmlns:xlink="http://www.w3.org/1999/xlink" x="0px" y="0px"
	 viewBox="0 0 50 50" enable-background="new 0 0 50 50" xml:space="preserve">
<g id="Layer_1">
	<path d="M25,42c-9.4,0-17-7.6-17-17S15.6,8,25,8s17,7.6,17,17S34.4,42,25,42z M25,9.9C16.6,9.9,9.9,16.6,9.9,25S16.6,40.2,25,40.2
		S40.2,33.4,40.2,25S33.4,9.9,25,9.9z"/>
	<g>
		<path d="M19.8,19.6c0.3-0.8,0.6-1.4,1.2-1.9c0.5-0.5,1.1-0.9,1.9-1.2s1.6-0.4,2.5-0.4c0.7,0,1.4,0.1,2,0.3
			c0.6,0.2,1.2,0.5,1.7,0.9s0.9,0.9,1.1,1.5c0.3,0.6,0.4,1.3,0.4,2c0,1-0.2,1.8-0.6,2.5s-1,1.3-1.6,2c-0.5,0.5-1,1-1.3,1.3
			c-0.3,0.3-0.6,0.6-0.7,0.9c-0.2,0.3-0.3,0.7-0.3,1.1c-0.1,0.4-0.1,0.7-0.1,1.5h-1.6c0-0.8,0-1.1,0.1-1.7c0.1-0.5,0.3-1,0.5-1.5
			c0.2-0.4,0.5-0.8,0.9-1.2c0.4-0.4,0.9-0.8,1.4-1.4c0.5-0.5,0.9-1,1.2-1.5s0.5-1.2,0.5-1.8c0-0.5-0.1-1-0.3-1.4
			c-0.2-0.4-0.5-0.8-0.8-1.1c-0.3-0.3-0.7-0.5-1.2-0.7c-0.5-0.2-0.9-0.3-1.4-0.3c-0.7,0-1.3,0.1-1.8,0.4c-0.5,0.2-1,0.6-1.3,1
			c-0.3,0.4-0.6,0.9-0.8,1.5S21,21.3,21,22h-1.6C19.4,21.1,19.5,20.4,19.8,19.6z M26,32v2h-2v-2H26z"/>
	</g>
</g>
<g id="Guides">
</g>
</svg>
